<svg width="366" height="63" viewBox="0 0 366 63" fill="none" xmlns="http://www.w3.org/2000/svg">
<path d="M22.8203 61.9468H0V7.28577H22.8203V61.9468Z" fill="#FE6839"/>
<path d="M54.7033 39.6224V61.9574H32.4316C33.3917 51.9241 42.9292 41.1206 54.6928 39.6224H54.7033Z" fill="#FE6839"/>
<path d="M32.4629 7.28577H54.724V29.4941C44.4586 28.7873 33.423 18.2686 32.4629 7.28577Z" fill="#FE6839"/>
<path d="M34.4891 40.9096C30.8809 40.8779 28.2117 38.1243 28.2644 34.5055C28.3172 30.9712 31.0181 28.3125 34.5419 28.3125C38.2028 28.3125 40.9459 31.14 40.872 34.8009C40.7982 38.272 38.0129 40.9412 34.4786 40.899L34.4891 40.9096Z" fill="#FE6839"/>
<path d="M124.241 47.5502V54.312H85.7129V14.9153H124.159V21.6653H93.8247V32.1484H118.641V37.1963H93.8247V47.5502H124.241Z" fill="#F9F9F9"/>
<path d="M138.599 41.0115C139.081 45.308 144.187 48.2663 150.714 48.3133C156.725 48.3485 159.695 46.2589 159.695 42.9132C159.695 39.2389 155.551 38.3349 147.345 37.1962C138.118 35.6936 130.84 33.158 130.84 25.7857C130.84 18.4135 136.956 14.0935 148.507 14.0935C160.059 14.0935 166.175 19.294 166.069 27.6875H158.134C157.875 22.9449 153.778 20.914 148.155 20.914C142.532 20.914 139.034 22.3462 139.034 25.9501C139.034 29.8945 143.037 30.5871 151.912 32.1014C160.775 33.4514 167.701 35.5997 167.701 43.1715C167.701 50.7433 162.336 55.1103 150.48 55.1103C136.029 55.1103 129.854 46.1298 130.394 40.988H138.611L138.599 41.0115Z" fill="#F9F9F9"/>
<path d="M206.473 54.312L182.936 33.6628V54.312H174.824V14.9153H182.936V33.5689L203.339 14.9153H215.395L193.865 33.4397L218.177 54.312H206.473Z" fill="#F9F9F9"/>
<path d="M217.719 34.6136C217.719 21.8061 226.875 14.1169 242.629 14.1169C258.383 14.1169 267.54 21.8061 267.54 34.6136C267.54 47.421 258.383 55.1102 242.629 55.1102C226.875 55.1102 217.719 47.421 217.719 34.6136ZM259.052 34.6136C259.052 25.6214 251.704 21.2426 242.629 21.2426C233.555 21.2426 226.018 25.6214 226.018 34.6136C226.018 43.6058 233.567 48.0784 242.629 48.0784C251.692 48.0784 259.052 43.7349 259.052 34.6136Z" fill="#F9F9F9"/>
<path d="M273.998 34.6136C273.998 21.8061 283.155 14.1169 298.909 14.1169C314.663 14.1169 323.819 21.8061 323.819 34.6136C323.819 47.421 314.663 55.1102 298.909 55.1102C283.155 55.1102 273.998 47.421 273.998 34.6136ZM315.332 34.6136C315.332 25.6214 307.983 21.2426 298.909 21.2426C289.834 21.2426 282.298 25.6214 282.298 34.6136C282.298 43.6058 289.846 48.0784 298.909 48.0784C307.971 48.0784 315.332 43.7349 315.332 34.6136Z" fill="#F9F9F9"/>
<path d="M365.999 47.5737V54.3355H336.663V54.312H331.721V14.9153H339.832V47.5855H365.999V47.5737Z" fill="#F9F9F9"/>
</svg>
