<svg width="423" height="474" viewBox="0 0 423 474" fill="none" xmlns="http://www.w3.org/2000/svg">
<g clip-path="url(#clip0_205_152)">
<path d="M515.075 -125.02L515.058 -125.018L514.399 -125.57L18.4757 475.914L19.8113 477.014L496.053 -100.597L60.7708 492.064L62.1673 493.087L498.008 -100.321L103.066 508.213L104.523 509.159L499.864 -99.9985L145.344 524.365L146.86 525.217L501.641 -99.5967L187.658 540.53L189.216 541.289L503.339 -99.133L229.953 556.679L231.552 557.347L504.98 -98.5579L272.25 572.846L273.889 573.404L506.581 -97.8733L314.547 589.013L316.226 589.462L508.158 -97.0985L356.86 605.161L358.564 605.536L509.745 -96.2376L399.174 621.326L400.884 621.596L511.364 -95.2581L441.489 637.491L443.221 637.653L512.985 -94.1043L483.801 653.638L485.54 653.713L515.936 -124.982L515.075 -125.02Z" fill="white" fill-opacity="0.35"/>
</g>
<defs>
<clipPath id="clip0_205_152">
<rect width="479" height="654" fill="white" transform="translate(-31 56.0557) rotate(-6.72056)"/>
</clipPath>
</defs>
</svg>
