<svg width="17" height="15" viewBox="0 0 17 15" fill="none" xmlns="http://www.w3.org/2000/svg">
<path d="M14.3202 10.6951C14.0619 10.4732 13.9651 10.2751 13.9322 10.0111L13.3256 5.14238L15.1308 3.59129C15.1417 3.58189 15.1524 3.57238 15.1628 3.56278L15.9985 10.2703C16.0309 10.5299 15.9449 10.7287 15.7973 10.8555C15.6496 10.9824 15.4183 11.0562 15.1162 11.0284C14.8089 11.0002 14.5784 10.917 14.3202 10.6951ZM14.2782 3.86482L13.2739 4.72773L13.1542 3.76653L14.1423 3.85742C14.1882 3.86164 14.2336 3.8641 14.2782 3.86482ZM12.7699 3.73117L12.9308 5.02261L2.40357 14.0682C2.21012 14.2344 1.97528 14.3014 1.72713 14.2786C1.47447 14.2553 1.19326 14.137 0.926448 13.9078C0.659636 13.6785 0.521927 13.4369 0.494879 13.2198C0.468314 13.0065 0.546267 12.8048 0.739722 12.6385L11.2669 3.59292L12.7699 3.73117ZM14.1825 3.53468L13.1131 3.4363L12.9986 2.51734C12.9662 2.25772 13.0522 2.05895 13.1998 1.93209C13.3474 1.80524 13.5788 1.73138 13.8809 1.75918C14.4902 1.81522 14.9997 2.25298 15.0649 2.77652C15.0972 3.03614 15.0113 3.23491 14.8636 3.36177C14.716 3.48862 14.4847 3.56247 14.1825 3.53468ZM12.6143 2.43514C12.6152 2.47349 12.618 2.51243 12.623 2.55189L12.7287 3.40095L11.6101 3.29805L12.6143 2.43514ZM12.9327 1.70257L11.1275 3.25366L5.46135 2.73245C5.15411 2.70419 4.92356 2.62097 4.66534 2.39909C4.40711 2.1772 4.31027 1.9791 4.27738 1.71511C4.24503 1.45548 4.33098 1.25671 4.47861 1.12985C4.62625 1.003 4.85757 0.929146 5.15972 0.956939L12.9659 1.67501C12.9547 1.68398 12.9436 1.69317 12.9327 1.70257Z" fill="#FE6839" stroke="#FE6839" stroke-width="0.352174"/>
</svg>
