<svg width="122" height="207" viewBox="0 0 122 207" fill="none" xmlns="http://www.w3.org/2000/svg">
<path opacity="0.05" d="M121.997 0.0282794C121.946 31.2714 121.963 73.5661 121.952 104.922H68.8375C68.7526 114.43 70.3985 123.264 74.2784 131.697C80.9863 146.278 93.1974 153.648 108.055 157.511C112.512 158.665 117.043 159.53 121.76 160.576V207C116.155 207 111.008 206.655 105.731 206.027C79.414 202.916 55.8176 193.33 35.9202 175.593C13.5794 155.678 1.11387 130.691 0.35032 100.714C-0.345354 73.306 0.208923 45.8693 0.214579 18.4439C0.214579 14.7053 0.242858 6.40247 0.225891 0C36.7969 0.050903 86.1275 0.0452471 121.997 0.0282794Z" fill="black"/>
</svg>
