<svg width="42" height="19" viewBox="0 0 42 19" fill="none" xmlns="http://www.w3.org/2000/svg">
<path d="M26.1726 3.07013L26.1836 3.06007L26.1939 3.04937C27.7556 1.43515 29.9487 0.50004 32.275 0.50004C37.0778 0.50004 41 4.46674 41 9.50002C41 14.4639 37.0766 18.4823 32.275 18.4823L32.2732 18.4823C31.1306 18.4865 29.998 18.2576 28.9403 17.8082C27.8825 17.3589 26.9198 16.6977 26.1078 15.8617L26.0966 15.8501L26.0846 15.8392L24.3037 14.2285L26.1293 12.5428L27.7596 14.0099C29.01 15.2961 30.6025 15.9684 32.275 15.9684C35.7574 15.9684 38.5833 13.0664 38.5833 9.50002C38.5833 5.93367 35.7574 3.03163 32.275 3.03163C30.5886 3.03163 29.0116 3.70163 27.8262 4.9212L15.8274 15.9299L15.8164 15.94L15.8061 15.9507C14.2444 17.5649 12.0513 18.5 9.725 18.5C4.92458 18.5 1 14.4651 1 9.50002C1 4.53491 4.92458 0.50004 9.725 0.500043L9.72651 0.500038C10.8702 0.49659 12.0037 0.727434 13.0615 1.17968C14.1194 1.63195 15.0812 2.29691 15.8908 3.13698L15.9035 3.15013L15.9171 3.16232L17.6904 4.75187L15.8255 6.44017L14.2419 4.99159C12.9919 3.70502 11.416 3.03163 9.725 3.03163C6.24259 3.03163 3.41667 5.93367 3.41667 9.50002C3.41667 13.0664 6.24259 15.9684 9.725 15.9684C11.4114 15.9684 12.9884 15.2984 14.1738 14.0788L26.1726 3.07013Z" fill="#02E4C0" stroke="black"/>
</svg>
