<svg width="32" height="40" viewBox="0 0 32 40" fill="none" xmlns="http://www.w3.org/2000/svg">
<path d="M14.8884 38.8804C15.2128 39.1121 15.6014 39.2366 16.0001 39.2366C16.3987 39.2366 16.7873 39.1121 17.1117 38.8804C17.6944 38.4683 31.389 28.5802 31.3334 16.2369C31.3334 7.78248 24.4545 0.903564 16.0001 0.903564C7.54565 0.903564 0.666734 7.78248 0.666734 16.2273C0.61115 28.5802 14.3057 38.4683 14.8884 38.8804ZM16.0001 4.7369C22.3423 4.7369 27.5001 9.89465 27.5001 16.2465C27.5403 24.7526 19.0897 32.3906 16.0001 34.8956C12.9123 32.3887 4.45982 24.7488 4.50007 16.2369C4.50007 9.89465 9.65782 4.7369 16.0001 4.7369Z" fill="white"/>
</svg>
