<svg width="16" height="16" viewBox="0 0 16 16" fill="none" xmlns="http://www.w3.org/2000/svg">
<path d="M13.3108 2.78191C12.0893 1.01409 10.1535 0 8.00003 0C5.84656 0 3.91072 1.01409 2.68925 2.78191C1.47378 4.54078 1.19313 6.76756 1.937 8.73491C2.13597 9.27216 2.45225 9.79412 2.87481 10.2832L7.57413 15.8031C7.68041 15.928 7.83613 16 8.00003 16C8.16394 16 8.31966 15.928 8.42594 15.8031L13.1239 10.2847C13.5484 9.79281 13.8643 9.27141 14.0616 8.73847C14.8069 6.76756 14.5263 4.54078 13.3108 2.78191ZM13.0139 8.34666C12.8618 8.75784 12.6134 9.16438 12.276 9.55541C12.2751 9.55634 12.2742 9.55728 12.2734 9.55841L8.00003 14.5777L3.72403 9.55525C3.38688 9.16456 3.13847 8.75806 2.98481 8.34294C2.36963 6.71591 2.60309 4.87478 3.60953 3.41819C4.61913 1.95694 6.2195 1.11888 8.00003 1.11888C9.78053 1.11888 11.3807 1.95691 12.3903 3.41819C13.397 4.87478 13.6306 6.71591 13.0139 8.34666Z" fill="#252525"/>
<path d="M8.00043 3.31934C6.27305 3.31934 4.86755 4.72465 4.86755 6.45221C4.86755 8.17977 6.27287 9.58509 8.00043 9.58509C9.72799 9.58509 11.1333 8.17977 11.1333 6.45221C11.1333 4.72484 9.7278 3.31934 8.00043 3.31934ZM8.00043 8.46618C6.88993 8.46618 5.98643 7.56268 5.98643 6.45218C5.98643 5.34168 6.88993 4.43818 8.00043 4.43818C9.11093 4.43818 10.0144 5.34168 10.0144 6.45218C10.0144 7.56268 9.11093 8.46618 8.00043 8.46618Z" fill="#252525"/>
</svg>
