<svg width="48" height="42" viewBox="0 0 48 42" fill="none" xmlns="http://www.w3.org/2000/svg">
<path d="M42.3281 31.1697C40.8884 22.3462 33.2306 15.6118 24 15.6118C14.7693 15.6118 7.1115 22.3463 5.67188 31.17V32.1441H13.9783V28.2034C15.565 24.2233 19.4541 21.4106 24 21.4106C28.546 21.4106 32.4352 24.2234 34.0219 28.2036V32.1441H42.3281V31.1697Z" fill="#FFE07D"/>
<path d="M45.7403 32.9605C45.5489 21.1171 35.8885 11.5752 23.9995 11.5752C12.1095 11.5752 2.44858 21.1185 2.25854 32.9631H7.1388V30.547C8.4632 22.4299 15.5079 16.2346 23.9995 16.2346C32.491 16.2346 39.5356 22.4297 40.86 30.5468V32.9631L45.7403 32.9605Z" fill="#FF8086"/>
<path d="M24.0005 11.5752C23.6394 11.5752 23.2805 11.5844 22.9238 11.6017C34.3141 12.1572 43.4024 21.4768 43.5879 32.9605L40.861 32.962V32.9631L45.7413 32.9605C45.5499 21.1171 35.8895 11.5752 24.0005 11.5752Z" fill="#E5646E"/>
<path d="M35.5463 28.7202C33.7183 24.1346 29.2377 20.894 24.0002 20.894C18.7628 20.894 14.2822 24.1345 12.4541 28.7199V31.1441H16.5432C17.4838 27.9139 20.4663 25.5535 24.0001 25.5535C27.534 25.5535 30.5165 27.914 31.457 31.1443H35.5462V28.7202H35.5463Z" fill="#AA79EE"/>
<path d="M29.4361 41.0846C27.2049 41.0846 25.4145 39.1702 25.5755 36.9069C25.7077 35.049 27.1794 33.5293 29.0322 33.3397C29.2931 33.3129 29.5491 33.3126 29.7983 33.3358C30.1384 33.3676 30.4521 33.1527 30.5634 32.8298C31.4001 30.4032 33.7023 28.6597 36.4131 28.6597C38.4469 28.6597 40.2508 29.6413 41.3786 31.1563C41.6661 31.5426 42.1147 31.7692 42.5962 31.7661C42.606 31.766 42.6158 31.766 42.6256 31.766C45.2254 31.766 47.3279 33.8952 47.2844 36.5049C47.2417 39.0597 45.1041 41.0847 42.5489 41.0847H29.4361V41.0846Z" fill="#ECF4FF"/>
<path d="M18.5642 41.0846C20.7955 41.0846 22.5858 39.1702 22.4248 36.9069C22.2927 35.049 20.821 33.5293 18.9681 33.3397C18.7073 33.3129 18.4513 33.3126 18.2021 33.3358C17.8619 33.3676 17.5482 33.1527 17.437 32.8298C16.6002 30.4032 14.298 28.6597 11.5872 28.6597C9.55344 28.6597 7.74959 29.6413 6.62178 31.1563C6.33425 31.5426 5.88565 31.7692 5.40415 31.7661C5.39431 31.766 5.38456 31.766 5.37472 31.766C2.77494 31.766 0.672404 33.8952 0.715998 36.5049C0.758654 39.0597 2.89625 41.0847 5.4514 41.0847H18.5642V41.0846Z" fill="#ECF4FF"/>
<path d="M22.4253 36.9069C22.2931 35.049 20.8214 33.5293 18.9686 33.3397C18.7078 33.3129 18.4517 33.3126 18.2025 33.3358C17.8624 33.3676 17.5487 33.1527 17.4374 32.8298C16.6007 30.4032 14.2985 28.6597 11.5877 28.6597C11.2193 28.6597 10.8585 28.6923 10.5078 28.7541C12.7389 29.1457 14.5578 30.732 15.2812 32.8298C15.3926 33.1527 15.7062 33.3676 16.0463 33.3358C16.2955 33.3126 16.5515 33.313 16.8123 33.3397C18.6652 33.5293 20.1369 35.049 20.2691 36.9069C20.43 39.1702 18.6398 41.0846 16.4084 41.0846H18.5647C20.7959 41.0846 22.5863 39.1702 22.4253 36.9069Z" fill="#DDEAFB"/>
<path d="M42.6263 31.7655C42.6164 31.7655 42.6067 31.7655 42.5968 31.7656C42.1153 31.7688 41.6667 31.5421 41.3792 31.1558C40.2514 29.6409 38.4476 28.6592 36.4137 28.6592C36.0464 28.6592 35.6871 28.6923 35.3374 28.7536C36.9225 29.0328 38.2994 29.9153 39.2229 31.1558C39.5104 31.5421 39.959 31.7687 40.4405 31.7656C40.4502 31.7655 40.4601 31.7655 40.4699 31.7655C43.0697 31.7655 45.1722 33.8947 45.1286 36.5045C45.086 39.0592 42.9484 41.0842 40.3932 41.0842H42.5495C45.1046 41.0842 47.2422 39.0592 47.2849 36.5045C47.3285 33.8946 45.2261 31.7655 42.6263 31.7655Z" fill="#DDEAFB"/>
<path d="M43.3414 31.8202C43.1083 31.7843 42.8696 31.7657 42.6265 31.7657C42.6167 31.7657 42.6069 31.7657 42.5971 31.7658C42.1156 31.7689 41.667 31.5423 41.3795 31.156C41.2947 31.0422 41.2057 30.9318 41.1136 30.8242C38.8707 31.6966 37.2761 33.8774 37.2761 36.4249C37.2761 36.8133 37.5909 37.1281 37.9792 37.1281C38.3676 37.1281 38.6824 36.8133 38.6824 36.4249C38.6824 33.8874 40.7468 31.823 43.2843 31.823C43.3037 31.8231 43.3225 31.8218 43.3414 31.8202Z" fill="#DDEAFB"/>
<path d="M9.31935 36.4249C9.31935 36.8132 9.63416 37.128 10.0225 37.128C10.4108 37.128 10.7256 36.8132 10.7256 36.4249C10.7256 33.8753 9.161 31.6851 6.94194 30.7617C6.83028 30.8887 6.7235 31.02 6.62234 31.1559C6.33481 31.5422 5.88622 31.7688 5.40472 31.7657C5.39497 31.7656 5.38513 31.7656 5.37528 31.7656C5.37519 31.7656 5.37509 31.7656 5.375 31.7656C7.61 32.1387 9.31935 34.0854 9.31935 36.4249Z" fill="#DDEAFB"/>
<path d="M24 9.17207C23.6117 9.17207 23.2969 8.85726 23.2969 8.46895V3.80957C23.2969 3.42126 23.6117 3.10645 24 3.10645C24.3883 3.10645 24.7031 3.42126 24.7031 3.80957V8.46895C24.7031 8.85726 24.3884 9.17207 24 9.17207Z" fill="#FFE07D"/>
<path d="M11.5763 12.5013C11.3333 12.5013 11.0969 12.3752 10.9667 12.1496L8.63704 8.11442C8.44288 7.77814 8.5581 7.34811 8.89438 7.15395C9.23067 6.9597 9.6607 7.07492 9.85485 7.41129L12.1845 11.4465C12.3787 11.7828 12.2635 12.2128 11.9272 12.407C11.8165 12.4709 11.6955 12.5013 11.5763 12.5013Z" fill="#FFE07D"/>
<path d="M36.425 12.5016C36.3057 12.5016 36.1848 12.4713 36.0741 12.4073C35.7378 12.2132 35.6226 11.7831 35.8167 11.4469L38.1465 7.41176C38.3407 7.07548 38.7707 6.96017 39.107 7.15442C39.4433 7.34857 39.5585 7.7786 39.3643 8.11488L37.0345 12.15C36.9043 12.3754 36.668 12.5016 36.425 12.5016Z" fill="#FFE07D"/>
<path d="M2.25628 18.4905C1.01213 18.4905 0 17.4783 0 16.2342C0 14.9901 1.01213 13.978 2.25628 13.978C3.50034 13.978 4.51247 14.9902 4.51247 16.2342C4.51247 17.4783 3.50034 18.4905 2.25628 18.4905ZM2.25628 15.3842C1.78753 15.3842 1.40625 15.7655 1.40625 16.2341C1.40625 16.7028 1.78753 17.0842 2.25628 17.0842C2.72494 17.0842 3.10622 16.7029 3.10622 16.2341C3.10622 15.7656 2.72494 15.3842 2.25628 15.3842Z" fill="#C3DDFF"/>
<path d="M45.7435 18.4905C44.4994 18.4905 43.4873 17.4784 43.4873 16.2342C43.4873 14.9901 44.4994 13.978 45.7435 13.978C46.9876 13.978 47.9998 14.9902 47.9998 16.2342C47.9998 17.4783 46.9876 18.4905 45.7435 18.4905ZM45.7435 15.3842C45.2748 15.3842 44.8936 15.7655 44.8936 16.2341C44.8936 16.7028 45.2748 17.0842 45.7435 17.0842C46.2121 17.0842 46.5935 16.7029 46.5935 16.2341C46.5935 15.7656 46.2122 15.3842 45.7435 15.3842Z" fill="#C3DDFF"/>
<path d="M17.7879 1.55316H16.9378V0.703126C16.9378 0.314813 16.623 0 16.2347 0C15.8464 0 15.5316 0.314813 15.5316 0.703126V1.55316H14.6816C14.2933 1.55316 13.9785 1.86797 13.9785 2.25628C13.9785 2.6446 14.2933 2.95941 14.6816 2.95941H15.5316V3.80935C15.5316 4.19766 15.8464 4.51247 16.2347 4.51247C16.623 4.51247 16.9378 4.19766 16.9378 3.80935V2.95941H17.7879C18.1762 2.95941 18.491 2.6446 18.491 2.25628C18.491 1.86797 18.1763 1.55316 17.7879 1.55316Z" fill="#FFF0AF"/>
<path d="M33.3201 1.55316H32.4701V0.703126C32.4701 0.314813 32.1553 0 31.767 0C31.3787 0 31.0639 0.314813 31.0639 0.703126V1.55316H30.2139C29.8256 1.55316 29.5107 1.86797 29.5107 2.25628C29.5107 2.6446 29.8256 2.95941 30.2139 2.95941H31.0639V3.80935C31.0639 4.19766 31.3787 4.51247 31.767 4.51247C32.1553 4.51247 32.4701 4.19766 32.4701 3.80935V2.95941H33.3201C33.7084 2.95941 34.0232 2.6446 34.0232 2.25628C34.0232 1.86797 33.7084 1.55316 33.3201 1.55316Z" fill="#FFF0AF"/>
</svg>
