<svg width="16" height="16" viewBox="0 0 16 16" fill="none" xmlns="http://www.w3.org/2000/svg">
<path d="M15.4878 14.5735L11.6798 10.6129C12.6589 9.44901 13.1954 7.98455 13.1954 6.45999C13.1954 2.89801 10.2974 0 6.73538 0C3.1734 0 0.275391 2.89801 0.275391 6.45999C0.275391 10.022 3.1734 12.92 6.73538 12.92C8.0726 12.92 9.34691 12.5167 10.4364 11.751L14.2734 15.7416C14.4337 15.9082 14.6494 16 14.8806 16C15.0994 16 15.307 15.9166 15.4645 15.7649C15.7993 15.4428 15.81 14.9085 15.4878 14.5735ZM6.73538 1.68522C9.36825 1.68522 11.5102 3.82713 11.5102 6.45999C11.5102 9.09286 9.36825 11.2348 6.73538 11.2348C4.10252 11.2348 1.96061 9.09286 1.96061 6.45999C1.96061 3.82713 4.10252 1.68522 6.73538 1.68522Z" fill="#252525"/>
</svg>
