<svg width="30" height="33" viewBox="0 0 30 33" fill="none" xmlns="http://www.w3.org/2000/svg">
<path fill-rule="evenodd" clip-rule="evenodd" d="M15.9402 2.90676C15.5673 2.38475 14.8598 2.22973 14.3029 2.548L2.84274 9.09665C2.46576 9.31207 2.22756 9.70769 2.21357 10.1417L1.78774 23.3422C1.77304 23.7979 2.00761 24.2254 2.39984 24.4579L13.8949 31.2697C14.2771 31.4962 14.7508 31.5028 15.1392 31.2871L26.6459 24.8944C27.0297 24.6812 27.2735 24.2822 27.2881 23.8434L27.7215 10.8424C27.733 10.4966 27.6007 10.1615 27.3561 9.91686L26.5175 9.0783C26.1285 8.68927 25.5308 8.60033 25.0454 8.85924L23.75 9.55012V19.9817C23.75 20.8615 23.329 21.6882 22.6175 22.2057L15.3466 27.4936C13.6035 28.7613 11.1459 27.6222 10.9867 25.4727L10.8463 23.5784L9.77205 24.1389C7.9412 25.0941 5.75 23.7659 5.75 21.7008V13.646C5.75 12.67 6.26729 11.7672 7.10927 11.2736L17.25 5.32903V5.14105C17.25 4.88052 17.1686 4.6265 17.0172 4.4145L15.9402 2.90676ZM18.673 4.49485C18.5907 4.15444 18.4437 3.83089 18.2378 3.54264L17.1608 2.0349C16.3405 0.886477 14.784 0.545436 13.5587 1.24564L2.09853 7.79428C1.26917 8.26821 0.745143 9.13856 0.714346 10.0933L0.288522 23.2938C0.256183 24.2963 0.772235 25.2369 1.63514 25.7483L13.1302 32.5602C13.971 33.0585 15.0132 33.073 15.8676 32.5983L27.3744 26.2057C28.2188 25.7366 28.7551 24.8588 28.7873 23.8934L29.2207 10.8924C29.246 10.1316 28.955 9.39442 28.4167 8.8562L27.5782 8.01764C26.7223 7.16177 25.4075 6.96612 24.3395 7.53571L23.75 7.85012V7.60567C23.75 7.06275 23.5893 6.53198 23.2881 6.08024L22.6711 5.1547C21.8629 3.94233 20.2493 3.57083 18.9922 4.30771L18.673 4.49485ZM17.25 7.06776L7.86785 12.5676C7.48513 12.792 7.25 13.2024 7.25 13.646V21.7008C7.25 22.6395 8.246 23.2432 9.07821 22.809L10.7257 21.9495L10.3483 16.8548C10.2679 15.7689 10.8358 14.7377 11.7967 14.2252L17.25 11.3168V7.06776ZM18.75 10.5168V6.18845L19.7508 5.60176C20.3222 5.26681 21.0557 5.43568 21.423 5.98675L22.0401 6.91229C22.177 7.11763 22.25 7.35889 22.25 7.60567V8.65012L18.75 10.5168ZM17.25 13.0168L12.5025 15.5488C12.0658 15.7817 11.8076 16.2504 11.8442 16.744L12.1738 21.1939L16.5782 18.896C16.9911 18.6806 17.25 18.2535 17.25 17.7877V13.0168ZM12.2945 22.8229L17.2721 20.2259C18.1804 19.7519 18.75 18.8123 18.75 17.7877V12.2168L22.25 10.3501V19.9817C22.25 20.3816 22.0586 20.7574 21.7352 20.9926L14.4644 26.2805C13.672 26.8567 12.5549 26.3389 12.4826 25.3619L12.2945 22.8229Z" fill="#FF764A"/>
</svg>
