<svg width="21" height="14" viewBox="0 0 21 14" fill="none" xmlns="http://www.w3.org/2000/svg">
<path d="M12.8334 12.8334C12.8334 12.4834 12.9501 12.2501 13.1834 12.0167L19.0168 6.18338C19.4834 5.71671 20.1834 5.71671 20.6501 6.18338C21.1168 6.65005 21.1168 7.35005 20.6501 7.81672L14.8167 13.6501C14.3501 14.1168 13.6501 14.1168 13.1834 13.6501C12.9501 13.4167 12.8334 13.1834 12.8334 12.8334Z" fill="black"/>
<path d="M12.8334 1.16667C12.8334 0.81667 12.9501 0.583336 13.1834 0.350002C13.6501 -0.116667 14.3501 -0.116667 14.8167 0.350002L20.6501 6.18338C21.1168 6.65005 21.1168 7.35005 20.6501 7.81672C20.1834 8.28339 19.4834 8.28338 19.0168 7.81671L13.1834 1.98334C12.9501 1.75001 12.8334 1.51667 12.8334 1.16667Z" fill="black"/>
<path d="M0 7.00005C3.05981e-08 6.30004 0.46667 5.83337 1.16667 5.83337L19.8334 5.83337C20.5334 5.83337 21.0001 6.30004 21.0001 7.00005C21.0001 7.70005 20.5334 8.16672 19.8334 8.16672L1.16667 8.16672C0.46667 8.16672 -3.05981e-08 7.70005 0 7.00005Z" fill="black"/>
</svg>
